<svg xmlns="http://www.w3.org/2000/svg" width="59" height="38" viewBox="0 0 59 38" fill="none">
  <path d="M10.61 32.77V36.45H5.81V32.77M53.9 32.77V36.45H49.1V32.77M5.7 17.11H54C54.9813 17.11 55.9224 17.4998 56.6163 18.1937C57.3102 18.8875 57.7 19.8287 57.7 20.81V32.81H2V20.81C2 20.3241 2.0957 19.8429 2.28165 19.394C2.46759 18.9451 2.74013 18.5372 3.0837 18.1937C3.42728 17.8501 3.83517 17.5775 4.28407 17.3916C4.73298 17.2057 5.21411 17.11 5.7 17.11ZM53.4101 6.33998V17.11H6.32V6.33998C6.32 5.7692 6.43257 5.20398 6.6513 4.67677C6.87003 4.14956 7.19059 3.67073 7.59466 3.26759C7.99872 2.86445 8.47833 2.54492 9.00604 2.3274C9.53374 2.10989 10.0993 1.9987 10.6701 2.00001H49.07C49.6399 2.00001 50.2043 2.11223 50.7309 2.33033C51.2574 2.54844 51.7358 2.86812 52.1388 3.27113C52.5419 3.67414 52.8614 4.15254 53.0795 4.67909C53.2976 5.20564 53.4101 5.77004 53.4101 6.33998ZM26.2299 10.95V17.11H13.61V10.95C13.61 10.6237 13.7395 10.3109 13.9701 10.0802C14.2008 9.84953 14.5138 9.71997 14.84 9.71997H24.9999C25.3261 9.71997 25.6391 9.84953 25.8698 10.0802C26.1005 10.3109 26.2299 10.6237 26.2299 10.95ZM46.11 10.95V17.11H33.4899V10.95C33.4899 10.6237 33.6196 10.3109 33.8503 10.0802C34.0809 9.84953 34.3937 9.71997 34.7199 9.71997H44.8801C45.2063 9.71997 45.519 9.84953 45.7497 10.0802C45.9804 10.3109 46.11 10.6237 46.11 10.95Z" stroke="#4B4544" stroke-width="2.5" stroke-miterlimit="10"/>
</svg>