<svg width="19" height="19" viewBox="0 0 19 19" fill="none" xmlns="http://www.w3.org/2000/svg">
<rect x="0.585323" y="0.585323" width="17.8294" height="17.8294" rx="8.60823" stroke="#F4B5A4" stroke-width="1.17065"/>
<path d="M13.1915 6.52801V12.5973C13.1915 13.1579 12.9695 13.6955 12.5743 14.092C12.1791 14.4885 11.643 14.7115 11.0839 14.7119H7.91597C7.63907 14.7119 7.36487 14.6572 7.10906 14.5509C6.85325 14.4447 6.62085 14.2889 6.42512 14.0925C6.22939 13.8961 6.07419 13.663 5.96838 13.4064C5.86256 13.1499 5.80821 12.875 5.80842 12.5973V6.52801M8.06698 8.35979V12.5607M10.9313 8.35979V12.5607M7.82968 5.1155V4.75114C7.83055 4.46724 7.94343 4.19522 8.14366 3.99448C8.3439 3.79373 8.61521 3.68057 8.89838 3.67969H10.1015C10.3847 3.68057 10.656 3.79373 10.8562 3.99448C11.0565 4.19522 11.1693 4.46724 11.1702 4.75114V5.1155M5.31722 5.1155H13.681C13.9101 5.1155 14.0959 5.30172 14.0959 5.53143V6.11208C14.0959 6.34179 13.9101 6.52801 13.681 6.52801H5.31722C5.08809 6.52801 4.90234 6.34179 4.90234 6.11208V5.53143C4.90234 5.30172 5.08809 5.1155 5.31722 5.1155Z" stroke="#F4B5A4" stroke-width="1.17065" stroke-linecap="round" stroke-linejoin="round"/>
</svg>
