<svg width="218" height="212" viewBox="0 0 218 212" fill="none" xmlns="http://www.w3.org/2000/svg">
<path d="M33.7569 48.2887H33.7678M33.7678 48.2887H204.327C205.021 48.2869 205.707 48.4401 206.335 48.7375C206.962 49.0348 207.516 49.4686 207.954 50.0072C208.392 50.5457 208.705 51.1752 208.869 51.8501C209.032 52.5249 209.043 53.2277 208.9 53.9072L192.218 133.574C192.006 134.587 191.463 135.501 190.675 136.171C189.886 136.841 188.896 137.23 187.862 137.276H56.3632M33.7678 48.2887L56.0145 137.276H56.3632M33.7678 48.2887L25.5245 15.3156C25.069 13.5116 24.0249 11.9113 22.5576 10.7674C21.0902 9.62348 19.2835 9.00154 17.4229 9H0M56.3632 137.276V157.922C56.3574 159.565 56.6767 161.194 57.3029 162.713C57.9291 164.232 58.8497 165.612 60.0117 166.774C61.1737 167.936 62.5541 168.857 64.0734 169.483C65.5927 170.11 67.2208 170.429 68.8641 170.423H194.004" stroke="#FAF0E6" stroke-width="17.4229" stroke-miterlimit="10"/>
<path d="M63.6697 211.8C71.2474 211.8 77.3903 205.658 77.3903 198.08C77.3903 190.502 71.2474 184.359 63.6697 184.359C56.0921 184.359 49.9492 190.502 49.9492 198.08C49.9492 205.658 56.0921 211.8 63.6697 211.8Z" fill="#FAF0E6"/>
<path d="M161.978 211.8C169.556 211.8 175.699 205.658 175.699 198.08C175.699 190.502 169.556 184.359 161.978 184.359C154.401 184.359 148.258 190.502 148.258 198.08C148.258 205.658 154.401 211.8 161.978 211.8Z" fill="#FAF0E6"/>
</svg>
