<svg width="22" height="48" viewBox="0 0 22 48" fill="none" xmlns="http://www.w3.org/2000/svg">
<path id="Vector" d="M2 32.71C2 35.0572 2.93241 37.3081 4.5921 38.9678C6.2518 40.6275 8.50281 41.56 10.85 41.56M10.85 41.56C13.1971 41.56 15.4482 40.6275 17.1079 38.9678C18.7676 37.3081 19.7 35.0572 19.7 32.71C19.7282 31.3415 19.419 29.9871 18.7999 28.7663C18.1808 27.5455 17.2707 26.4959 16.15 25.71C12.66 23.6 7.83997 24.23 4.77997 21.38C3.91036 20.5652 3.21551 19.5822 2.73761 18.4906C2.25971 17.3989 2.00876 16.2216 2 15.03C2 12.6819 2.93208 10.4298 4.59149 8.76851C6.2509 7.10722 8.50189 6.17265 10.85 6.17C13.1981 6.17265 15.449 7.10722 17.1085 8.76851C18.7679 10.4298 19.7 12.6819 19.7 15.03M10.85 41.56L10.85 45.72M10.85 2V6.16" stroke="#F4B5A4" stroke-width="2.9" stroke-linecap="round" stroke-linejoin="round"/>
</svg>
