<svg xmlns="http://www.w3.org/2000/svg" width="26" height="18" viewBox="0 0 26 18" fill="none">
  <path opacity="0.45" d="M20.4124 1L7.03908 17M8.47606 14.8448C5.01266 13.1 2.62618 10.0172 2.62618 10.0172C2.62618 10.0172 7.27194 4.02414 13.0018 4.02414C14.4046 4.04588 15.7844 4.36518 17.04 4.95861M18.9645 6.0276C20.6352 7.14246 22.1214 8.4871 23.3738 10.0172C23.2712 10.1653 23.1555 10.3049 23.0281 10.4345C22.7116 10.8 22.3806 11.1552 22.035 11.4966C20.4524 13.0759 18.5861 14.5069 16.4215 15.3103C14.8761 15.902 13.1962 16.1074 11.543 15.9069C11.255 15.8805 10.9735 15.8094 10.7099 15.6965M20.6671 3.54827C22.2704 4.58999 23.7265 5.82182 25 7.21379M1 7.21379C1 7.21379 6.37335 1.00689 13.0055 1.00689C15.0949 1.05187 17.1398 1.58741 18.9572 2.56552M15.05 7.43104L14.8172 7.23105C14.2701 6.91228 13.6403 6.74393 12.9982 6.74483C12.0777 6.74483 11.1949 7.09142 10.544 7.70835C9.89315 8.32528 9.5275 9.16203 9.5275 10.0345C9.5268 10.5148 9.63718 10.9894 9.85089 11.4249C10.0646 11.8604 10.3764 12.2462 10.7644 12.5552M16.3087 9.02414C16.417 9.34519 16.4722 9.68019 16.4724 10.0172C16.4724 10.8897 16.1068 11.7265 15.4559 12.3434C14.805 12.9603 13.9223 13.3069 13.0018 13.3069" stroke="#CC7861" stroke-width="1.5" stroke-linecap="round" stroke-linejoin="round"/>
</svg>