<svg width="27" height="27" viewBox="0 0 27 27" fill="none" xmlns="http://www.w3.org/2000/svg">
<g id="Group 109">
<circle id="Ellipse 11" cx="13.9802" cy="13.0192" r="13.0192" fill="#F4B5A4"/>
<g id="Vector">
<path d="M12.9796 11.0186C12.9796 12.1248 12.0828 13.0215 10.9766 13.0215C9.87042 13.0215 8.97366 12.1248 8.97366 11.0186C8.97366 9.91238 9.87042 9.01562 10.9766 9.01562C12.0828 9.01562 12.9796 9.91238 12.9796 11.0186Z" fill="#F4B5A4"/>
<path d="M17.987 16.026C17.987 17.1322 17.0902 18.0289 15.984 18.0289C14.8778 18.0289 13.9811 17.1322 13.9811 16.026C13.9811 14.9198 14.8778 14.023 15.984 14.023C17.0902 14.023 17.987 14.9198 17.987 16.026Z" fill="#F4B5A4"/>
<path d="M12.9796 11.0186H20.9914M12.9796 11.0186C12.9796 12.1248 12.0828 13.0215 10.9766 13.0215C9.87042 13.0215 8.97366 12.1248 8.97366 11.0186M12.9796 11.0186C12.9796 9.91238 12.0828 9.01562 10.9766 9.01562C9.87042 9.01562 8.97366 9.91238 8.97366 11.0186M6.9707 11.0186H8.97366M17.987 16.026H20.9914M17.987 16.026C17.987 17.1322 17.0902 18.0289 15.984 18.0289C14.8778 18.0289 13.9811 17.1322 13.9811 16.026M17.987 16.026C17.987 14.9198 17.0902 14.023 15.984 14.023C14.8778 14.023 13.9811 14.9198 13.9811 16.026M6.9707 16.026H13.9811" stroke="#4B4544" stroke-linecap="round" stroke-linejoin="round"/>
</g>
</g>
</svg>
