<svg xmlns="http://www.w3.org/2000/svg" width="54" height="52" viewBox="0 0 54 52" fill="none">
  <path d="M38.4298 50V22.1399H15.5702V50M38.4298 50H15.5702M38.4298 50H52V29.7762H38.4298M38.4298 50V29.7762M15.5702 50V29.7762M15.5702 50H2V29.7762H15.5702M15.5702 29.7762H38.4298M24.8317 0V5.81823L14.9687 13.8322C14.9615 13.8447 14.9576 13.859 14.9575 13.8735C14.9574 13.888 14.961 13.9023 14.9681 13.915C14.9751 13.9277 14.9851 13.9382 14.9974 13.9457C15.0098 13.9533 15.0243 13.9575 15.0388 13.958H39.0173C39.0318 13.9575 39.046 13.9533 39.0583 13.9457C39.0707 13.9382 39.081 13.9277 39.088 13.915C39.0951 13.9023 39.0988 13.888 39.0986 13.8735C39.0985 13.859 39.0946 13.8447 39.0874 13.8322L29.2944 5.81823V0M15.5702 35.5664H2M52 35.5664H38.4298M20.3688 34.7552H33.6312V45.3147H20.3688V34.7552Z" stroke="#4B4544" stroke-width="2.5" stroke-miterlimit="10"/>
  <circle cx="8.73083" cy="39.423" r="0.961538" fill="#4B4544"/>
  <circle cx="45.2692" cy="39.423" r="0.961538" fill="#4B4544"/>
  <circle cx="0.961538" cy="0.961538" r="0.961538" transform="matrix(1 0 0 -1 20.2693 26.9231)" fill="#4B4544"/>
  <circle cx="0.961538" cy="0.961538" r="0.961538" transform="matrix(1 0 0 -1 31.8076 26.9231)" fill="#4B4544"/>
  <circle cx="0.961538" cy="0.961538" r="0.961538" transform="matrix(1 0 0 -1 26.0386 26.9231)" fill="#4B4544"/>
</svg>