<svg xmlns="http://www.w3.org/2000/svg" width="43" height="41" viewBox="0 0 43 41" fill="none">
  <path d="M41 23.3976V35.4449H2V23.3976M10.3245 22.4169H32.6755M6.1623 13.9248V7.23803C6.16525 5.84974 6.71875 4.51908 7.70167 3.53741C8.68459 2.55574 10.0168 2.00294 11.4069 2H31.6043C32.9943 2.00294 34.3267 2.55574 35.3096 3.53741C36.2925 4.51908 36.846 5.84974 36.849 7.23803V13.9248M32.6755 28.7804H41V17.1009C41 16.2585 40.6649 15.4507 40.0685 14.855C39.4721 14.2594 38.6632 13.9247 37.8197 13.9247H35.8558C35.0123 13.9247 34.2034 14.2594 33.607 14.855C33.0106 15.4507 32.6755 16.2585 32.6755 17.1009V28.7804ZM32.6755 28.7804H9.97854M10.3245 35.4449V39H5.6824V35.4449M37.3176 35.4449V39H32.6755V35.4449M5.18026 13.9247H7.14421C7.98766 13.9247 8.79657 14.2594 9.39299 14.855C9.9894 15.4507 10.3245 16.2585 10.3245 17.1009V28.7804H2V17.1009C2 16.2585 2.33506 15.4507 2.93148 14.855C3.52789 14.2594 4.3368 13.9247 5.18026 13.9247Z" stroke="#4B4544" stroke-width="2.5" stroke-miterlimit="10"/>
</svg>