<?xml version="1.0" standalone="no"?>
<!DOCTYPE svg PUBLIC "-//W3C//DTD SVG 20010904//EN"
 "http://www.w3.org/TR/2001/REC-SVG-20010904/DTD/svg10.dtd">
<svg version="1.0" xmlns="http://www.w3.org/2000/svg"
 width="52.000000pt" height="52.000000pt" viewBox="0 0 52.000000 52.000000"
 preserveAspectRatio="xMidYMid meet">

<g transform="translate(0.000000,512.000000) scale(0.100000,-0.100000)"
fill="#000000" stroke="none">
<path d="M1945 5100 c-93 -25 -138 -44 -206 -90 -123 -84 -224 -233 -254 -376
-21 -98 -22 -1572 -1 -1649 26 -99 93 -176 191 -222 l60 -28 273 -3 272 -3 0
-174 0 -174 -402 -3 c-395 -3 -404 -3 -452 -26 -72 -33 -114 -68 -150 -126
-46 -72 -56 -118 -56 -247 l-1 -114 -33 39 c-19 22 -39 56 -45 76 -7 24 -11
162 -11 394 l0 356 94 0 c124 0 126 3 126 157 0 122 -8 153 -48 197 -51 54
-93 66 -240 66 -171 0 -226 -21 -270 -105 -21 -40 -30 -233 -12 -275 15 -35
27 -39 135 -42 l80 -3 5 -385 5 -385 26 -55 c44 -93 128 -164 229 -194 46 -14
125 -16 537 -16 l483 0 0 -195 0 -195 -30 0 -30 0 0 73 c0 106 -2 107 -176
107 -76 0 -144 -4 -150 -8 -28 -19 -34 -56 -34 -227 0 -171 6 -208 34 -227 6
-4 74 -8 152 -8 170 0 174 2 174 98 l0 62 30 0 30 0 0 -245 0 -245 -370 0
c-350 0 -372 -1 -425 -21 -71 -27 -130 -72 -171 -132 -36 -53 -51 -94 -60
-174 -6 -46 -4 -54 19 -77 19 -19 37 -26 65 -26 37 0 39 -2 60 -53 32 -78 74
-122 150 -159 58 -29 77 -33 142 -33 56 1 88 7 127 24 78 35 151 118 177 204
5 16 41 17 566 17 525 0 561 -1 566 -17 26 -86 99 -169 177 -204 39 -17 71
-23 127 -24 65 0 84 4 142 33 76 37 118 81 150 159 21 51 23 53 60 53 28 0 46
7 65 26 23 23 25 31 19 77 -9 80 -24 121 -60 174 -41 60 -100 105 -171 132
-53 20 -75 21 -425 21 l-370 0 0 505 0 505 483 0 c412 0 491 2 537 16 101 30
185 101 229 194 l26 55 5 385 5 385 80 3 c108 3 120 7 135 42 18 42 9 235 -12
275 -44 84 -99 105 -270 105 -147 0 -189 -12 -240 -66 -40 -44 -48 -75 -48
-197 0 -154 2 -157 126 -157 l94 0 0 -356 c0 -232 -4 -370 -11 -394 -6 -20
-26 -54 -45 -76 l-33 -39 -1 114 c0 129 -10 175 -56 247 -36 58 -78 93 -150
126 -48 23 -57 23 -451 26 l-403 3 0 174 0 174 273 3 272 3 60 28 c98 46 165
123 191 222 21 77 20 1551 -1 1649 -43 205 -202 380 -410 453 l-80 28 -565 2
c-526 2 -570 1 -635 -17z m1237 -137 c123 -46 231 -141 282 -246 57 -118 57
-107 54 -938 -3 -846 1 -788 -69 -857 -60 -59 -35 -57 -889 -57 -854 0 -829
-2 -889 57 -71 69 -66 8 -66 878 0 741 1 788 19 840 61 180 212 311 396 343
14 3 268 4 565 3 526 -1 541 -2 597 -23z m-1976 -1967 c8 -12 14 -44 14 -78
l0 -58 -155 0 -155 0 0 64 c0 92 10 98 163 94 104 -3 120 -5 133 -22z m2982 8
c19 -13 22 -24 22 -80 l0 -64 -155 0 -155 0 0 58 c0 58 11 85 40 95 8 3 62 6
120 6 80 1 111 -3 128 -15z m-1478 -449 l0 -175 -150 0 -150 0 0 175 0 175
150 0 150 0 0 -175z m900 -316 c62 -13 115 -57 141 -114 22 -47 26 -208 7
-250 -26 -58 31 -55 -1198 -55 -1229 0 -1172 -3 -1198 55 -19 42 -15 203 7
250 26 56 72 96 128 111 64 17 2034 20 2113 3z m-900 -1054 l0 -505 -150 0
-150 0 0 505 0 505 150 0 150 0 0 -505z m-620 60 l0 -105 -50 0 -50 0 0 105 0
105 50 0 50 0 0 -105z m1492 -705 c58 -17 125 -81 142 -137 l7 -23 -1171 0
-1171 0 7 23 c8 28 35 65 67 95 56 52 29 51 1092 52 652 0 1003 -4 1027 -10z
m-1737 -318 c-67 -112 -244 -114 -308 -3 l-19 31 172 0 171 0 -16 -28z m1738
-3 c-64 -111 -241 -109 -308 3 l-16 28 171 0 172 0 -19 -31z"/>
</g>
</svg>
