<svg width="36" height="44" viewBox="0 0 36 44" fill="none" xmlns="http://www.w3.org/2000/svg">
<g id="Paypal">
<path id="Paypal_2" d="M8.6883 37.0832L8.32796 39.2277C8.28026 39.5342 8.29951 39.8474 8.38433 40.1458C8.46915 40.4442 8.61756 40.7208 8.81939 40.9565C9.02123 41.1923 9.27169 41.3817 9.55366 41.5118C9.83563 41.6418 10.1424 41.7094 10.453 41.71H15.181C15.5313 41.7151 15.872 41.595 16.1416 41.3715C16.4113 41.148 16.5921 40.8357 16.6516 40.4909L18.6149 28.6963H25.0267C26.2424 28.6921 27.444 28.4355 28.5551 27.9428C29.6663 27.4501 30.6628 26.7322 31.4814 25.8345C32.3 24.9368 32.9228 23.8789 33.3104 22.7281C33.6979 21.5772 33.8418 20.3584 33.7327 19.1491C33.6073 17.8091 33.1645 16.5182 32.4408 15.3829C31.7172 14.2477 30.7334 13.3007 29.5709 12.6202M9.81327 37.0832C10.1951 37.0841 10.5645 36.9483 10.8546 36.7003C11.1447 36.4524 11.3361 36.1088 11.3942 35.7319L13.6001 21.7782H19.7031C21.101 21.7741 22.4823 21.4752 23.7566 20.901C25.0308 20.3267 26.1693 19.4902 27.0974 18.4461C28.0254 17.4019 28.7223 16.1738 29.1422 14.842C29.5621 13.5103 29.6957 12.105 29.5341 10.7181C29.1991 8.28132 27.9845 6.05063 26.1187 4.44534C24.2528 2.84006 21.8641 1.97073 19.4016 2.00075H10.9236C9.84439 2.00132 8.80072 2.38612 7.98 3.08604C7.15927 3.78596 6.61523 4.75516 6.44557 5.81964C6.44557 5.81964 3.33524 25.6926 2.03375 34.1382C1.97384 34.5009 1.99387 34.8722 2.09245 35.2263C2.19104 35.5804 2.36583 35.9088 2.60457 36.1885C2.84331 36.4682 3.14026 36.6925 3.47474 36.8458C3.80921 36.999 4.17317 37.0776 4.54116 37.0759L9.81327 37.0832ZM15.7766 7.57487H18.0413C19.1261 7.55487 20.1801 7.93475 21.0021 8.64194C21.8241 9.34913 22.3564 10.334 22.4973 11.4085C22.5665 12.0176 22.5064 12.6344 22.3209 13.2188C22.1355 13.8032 21.8288 14.3419 21.4208 14.7999C21.0129 15.258 20.5129 15.625 19.9534 15.8771C19.3939 16.1291 18.7875 16.2606 18.1737 16.2629H14.431L15.7766 7.57487Z" stroke="#F4B5A4" stroke-width="2.8" stroke-linecap="round" stroke-linejoin="round"/>
</g>
</svg>
