<svg width="12" height="12" viewBox="0 0 12 12" fill="none" xmlns="http://www.w3.org/2000/svg">
<g id="Star">
<path id="Vector" d="M11.1279 3.88573L8.92256 3.33038C8.64991 3.26078 8.41389 3.09004 8.26252 2.85283L7.05255 0.926541C6.95568 0.768446 6.81954 0.638144 6.65733 0.548339C6.49511 0.458535 6.31238 0.412292 6.12698 0.414114C5.94203 0.412756 5.7599 0.45922 5.5982 0.549002C5.4365 0.638785 5.30072 0.768838 5.20409 0.926541L3.99143 2.85283C3.84171 3.09044 3.6064 3.26142 3.33415 3.33038L1.12884 3.88573C0.949451 3.93076 0.784413 4.02062 0.649257 4.14688C0.5141 4.27315 0.413266 4.43167 0.356147 4.60759C0.299027 4.78351 0.287474 4.97105 0.322676 5.15262C0.357879 5.3342 0.43864 5.50386 0.557361 5.64569L2.0142 7.39223C2.19431 7.60787 2.28459 7.88452 2.26637 8.16489L2.11343 10.4346C2.10353 10.5839 2.12432 10.7336 2.17454 10.8745C2.22476 11.0154 2.30335 11.1445 2.40543 11.2539C2.5075 11.3633 2.63091 11.4505 2.76803 11.5104C2.90516 11.5702 3.05309 11.6012 3.20269 11.6016C3.3423 11.6016 3.48065 11.5752 3.61049 11.5238L5.72186 10.676C5.85093 10.6253 5.98829 10.5989 6.12698 10.5982C6.26656 10.5986 6.40485 10.625 6.53478 10.676L8.64622 11.5238C8.77605 11.5752 8.9144 11.6016 9.05402 11.6016C9.20362 11.6012 9.35148 11.5702 9.48861 11.5104C9.62573 11.4505 9.74914 11.3633 9.85121 11.2539C9.95329 11.1445 10.0319 11.0154 10.0821 10.8745C10.1323 10.7336 10.1531 10.5839 10.1432 10.4346L9.99033 8.16489C9.97212 7.88452 10.0624 7.60787 10.2425 7.39223L11.6993 5.64569C11.818 5.50386 11.8988 5.3342 11.934 5.15262C11.9692 4.97105 11.9577 4.78351 11.9006 4.60759C11.8434 4.43167 11.7425 4.27315 11.6074 4.14688C11.4722 4.02062 11.3073 3.93076 11.1279 3.88573Z" fill="#F4B5A4"/>
</g>
</svg>
