<svg width="46" height="58" viewBox="0 0 46 58" fill="none" xmlns="http://www.w3.org/2000/svg">
<rect width="46" height="58" fill="#1E1E1E"/>
<g id="Icons">
<rect x="-613" y="-591" width="2493" height="1458" rx="60" fill="white"/>
<path id="Vector" d="M39.41 41.8899H7.33M8.28003 33.1899H38.46M23.37 25.71V33.1399M23.37 41.89V57.89M15.7701 57.9299C15.7631 56.9004 15.9638 55.8801 16.36 54.9299C16.9424 53.5539 17.9165 52.3795 19.1611 51.5527C20.4057 50.726 21.8659 50.2834 23.36 50.28C24.8239 50.28 26.2566 50.7028 27.486 51.4975C28.7154 52.2922 29.6891 53.4251 30.2901 54.7599C30.7328 55.744 30.9611 56.8109 30.96 57.89M36.9399 25.71V9.70996C36.9373 7.66422 36.1228 5.70319 34.6753 4.25757C33.2278 2.81195 31.2657 2 29.22 2H17.52C15.4743 2 13.5122 2.81195 12.0647 4.25757C10.6172 5.70319 9.8027 7.66422 9.80005 9.70996V25.71H36.9399ZM44.7 27.1899C44.7 26.3625 44.3712 25.5689 43.7861 24.9838C43.201 24.3987 42.4074 24.0699 41.58 24.0699C40.7525 24.0699 39.9589 24.3987 39.3738 24.9838C38.7887 25.5689 38.46 26.3625 38.46 27.1899V41.89H44.7V27.1899ZM8.28003 27.19C8.28003 26.3625 7.95132 25.5689 7.36621 24.9838C6.7811 24.3987 5.98751 24.07 5.16003 24.07C4.74696 24.0647 4.3369 24.1414 3.95374 24.2958C3.57057 24.4503 3.22195 24.6792 2.92798 24.9695C2.63401 25.2597 2.4005 25.6055 2.24121 25.9866C2.08192 26.3678 1.99997 26.7768 2 27.19V41.89H8.23999L8.28003 27.19Z" stroke="#4B4544" stroke-width="2.5" stroke-miterlimit="10"/>
</g>
</svg>
