<svg width="281" height="210" viewBox="0 0 281 210" fill="none" xmlns="http://www.w3.org/2000/svg">
<path d="M69.5135 161.049V200H212.447V158.401M212.447 72.4655V43.4316C212.447 34.5649 208.859 26.0614 202.473 19.7917C196.087 13.5221 187.425 10 178.393 10H39.2536C31.4982 10.0355 24.0714 13.0786 18.5917 18.4666C13.112 23.8547 10.024 31.1505 10 38.7644V66.2278H48.8072M69.5137 164.818V38.7644C69.4896 31.1428 66.3948 23.8401 60.9053 18.4507C55.4157 13.0614 47.9772 10.0237 40.2139 10M97.7619 54.74H138.123M97.7619 94.7235H154.122M97.7619 141.708H180.587M248.649 68.6061C242.655 66.3304 236.144 65.6922 229.81 66.7589C223.476 67.8256 217.555 70.5573 212.676 74.6641C207.797 70.5573 201.875 67.8256 195.541 66.7589C189.206 65.6922 182.696 66.3304 176.702 68.6061C172.352 70.2637 168.378 72.7468 165.005 75.913C161.633 79.0793 158.93 82.8665 157.049 87.0589C155.169 91.2513 154.149 95.7668 154.046 100.347C153.944 104.926 154.761 109.481 156.453 113.75C163.401 131.341 212.63 159.702 212.63 159.702C214.641 158.58 261.859 131.386 268.807 113.795C270.508 109.529 271.336 104.975 271.243 100.395C271.15 95.8142 270.139 91.2961 268.267 87.0994C266.395 82.9027 263.698 79.1092 260.332 75.936C256.966 72.7628 252.996 70.2721 248.649 68.6061Z" stroke="#FAF0E6" stroke-width="19" stroke-miterlimit="10"/>
</svg>
