<svg width="29" height="22" viewBox="0 0 29 22" fill="none" xmlns="http://www.w3.org/2000/svg">
<g id="Wishlist">
<path id="Vector" d="M6.98579 16.1923V20.11H21.3618V15.926M21.3618 7.2827V4.3625C21.3618 3.47071 21.001 2.61544 20.3587 1.98484C19.7163 1.35424 18.8452 1 17.9368 1H3.94229C3.16226 1.00357 2.41528 1.30964 1.86414 1.85156C1.313 2.39349 1.00242 3.12729 1 3.89309V6.65532H4.90318M6.98582 16.5714V3.89309C6.98339 3.12651 6.67212 2.39202 6.11999 1.84996C5.56786 1.30791 4.8197 1.00238 4.03887 1M9.82698 5.4999H13.8865M9.82698 9.52138H15.4956M9.82698 14.247H18.1575M25.003 6.89452C24.4001 6.66564 23.7453 6.60145 23.1082 6.70874C22.4711 6.81603 21.8756 7.09078 21.3848 7.50383C20.8941 7.09078 20.2985 6.81603 19.6614 6.70874C19.0244 6.60145 18.3696 6.66564 17.7667 6.89452C17.3292 7.06124 16.9294 7.31099 16.5902 7.62945C16.2511 7.9479 15.9792 8.32882 15.79 8.75048C15.6009 9.17215 15.4983 9.62631 15.488 10.0869C15.4777 10.5476 15.5599 11.0057 15.73 11.4351C16.4288 13.2044 21.3802 16.0569 21.3802 16.0569C21.5825 15.944 26.3317 13.2089 27.0305 11.4396C27.2015 11.0105 27.2848 10.5525 27.2755 10.0918C27.2662 9.63108 27.1644 9.17666 26.9761 8.75456C26.7878 8.33246 26.5167 7.95092 26.1781 7.63176C25.8395 7.31261 25.4402 7.06209 25.003 6.89452Z" stroke="#F4B5A4" stroke-width="1.911" stroke-miterlimit="10"/>
</g>
</svg>
