<svg width="44" height="38" viewBox="0 0 44 38" fill="none" xmlns="http://www.w3.org/2000/svg">
<path id="Vector" d="M30.5381 7.25864H38.9236C39.3275 7.25864 39.7276 7.33828 40.1009 7.49306C40.4741 7.64784 40.8132 7.87471 41.0989 8.16071C41.3846 8.44671 41.6112 8.78621 41.7659 9.15988C41.9205 9.53356 42 9.93409 42 10.3386V32.92C42 33.3245 41.9205 33.725 41.7659 34.0987C41.6112 34.4723 41.3846 34.8118 41.0989 35.0978C40.8132 35.3838 40.4741 35.6107 40.1009 35.7655C39.7276 35.9203 39.3275 36 38.9236 36H5.07627C4.26036 36 3.47787 35.6754 2.90094 35.0978C2.324 34.5202 2 33.7368 2 32.92V10.3386C2 9.52171 2.324 8.73831 2.90094 8.16071C3.47787 7.58311 4.26036 7.25864 5.07627 7.25864H13.9015C13.8235 7.07413 13.8235 3.94448 13.8235 3.94448C13.8225 3.68887 13.8721 3.43555 13.9694 3.19922C14.0666 2.96288 14.2097 2.74818 14.3902 2.56743C14.5708 2.38668 14.7853 2.24346 15.0214 2.14607C15.2574 2.04868 15.5104 1.99908 15.7657 2.00001H28.6808C29.1959 2.00001 29.6899 2.20485 30.0542 2.56951C30.4184 2.93417 30.623 3.42878 30.623 3.94448C30.623 3.94448 30.5877 7.07413 30.5381 7.25864Z" stroke="#363130" stroke-width="2.5" stroke-linecap="round" stroke-linejoin="round"/>
</svg>
