<svg width="24" height="22" viewBox="0 0 24 22" fill="none" xmlns="http://www.w3.org/2000/svg">
<g id="Group 357">
<path id="Vector" d="M2.02298 9.94719C2.21716 7.51087 3.32207 5.23712 5.1176 3.57898C6.91312 1.92084 9.26744 1.00004 11.7115 1C14.1515 1.00035 16.5021 1.91807 18.2969 3.57106C20.0917 5.22405 21.1993 7.49146 21.4 9.92318M20.7513 14.2132C19.8395 16.524 18.8294 17.8168 15.9469 19.636M20.7513 14.2132C20.4833 14.1315 20.2584 13.947 20.126 13.7001C19.9935 13.4531 19.9642 13.1638 20.0444 12.8953C20.2257 12.2954 20.3171 11.672 20.3155 11.0454C20.3155 10.9068 20.3429 10.7695 20.396 10.6414C20.4492 10.5134 20.5271 10.3971 20.6253 10.2992C20.7235 10.2013 20.8401 10.1238 20.9683 10.071C21.0965 10.0183 21.2339 9.99136 21.3725 9.99181C21.511 9.99136 21.6482 10.0183 21.7763 10.0711C21.9043 10.1239 22.0206 10.2015 22.1186 10.2994C22.2165 10.3973 22.2941 10.5136 22.3469 10.6417C22.3997 10.7697 22.4266 10.9069 22.4261 11.0454C22.4328 11.878 22.3171 12.7071 22.0829 13.5062C22.018 13.7233 21.8847 13.9137 21.703 14.0491C21.5212 14.1845 21.3006 14.2577 21.074 14.2578C20.9649 14.2577 20.8563 14.2427 20.7513 14.2132ZM11.8453 12.48V11.7936C11.8456 11.4957 11.9256 11.2033 12.0771 10.9468C12.2286 10.6903 12.4337 10.4882 12.7068 10.335C12.9798 10.1818 13.2071 9.95858 13.3651 9.68832C13.5232 9.41806 13.6063 9.11056 13.606 8.79748C13.5988 8.33307 13.411 7.8897 13.0822 7.56159C12.7535 7.23349 12.3098 7.0465 11.8453 7.0403C11.3793 7.0403 10.9324 7.22544 10.6028 7.55497C10.2733 7.88451 10.0882 8.33144 10.0882 8.79748V9.18529M2.35245 14.2578C2.1258 14.2577 1.90522 14.1845 1.72345 14.0491C1.54168 13.9137 1.40844 13.7233 1.34347 13.5062C1.10927 12.7071 0.99364 11.878 1.00027 11.0454C1.00027 10.9068 1.02763 10.7695 1.08079 10.6414C1.13395 10.5134 1.21188 10.3971 1.31008 10.2992C1.40828 10.2013 1.52484 10.1238 1.65307 10.071C1.7813 10.0183 1.91866 9.99136 2.05731 9.99181C2.1958 9.99136 2.33301 10.0183 2.46104 10.0711C2.58908 10.1239 2.70544 10.2015 2.80336 10.2994C2.90129 10.3973 2.97886 10.5136 3.03165 10.6417C3.08444 10.7697 3.11141 10.9069 3.11095 11.0454C3.11104 11.6719 3.20235 12.2951 3.38205 12.8953C3.42223 13.0282 3.43581 13.1678 3.42202 13.306C3.40823 13.4442 3.36736 13.5783 3.3017 13.7007C3.23604 13.8231 3.14687 13.9314 3.03936 14.0193C2.93184 14.1072 2.80807 14.1731 2.67508 14.2132C2.5702 14.2432 2.46156 14.2583 2.35245 14.2578ZM16.4717 15.1055C17.1171 14.461 17.6188 13.6871 17.9438 12.8348C18.2687 11.9825 18.4096 11.0711 18.357 10.1605C18.3045 9.24985 18.0598 8.36066 17.6391 7.55138C17.2183 6.74209 16.6309 6.03103 15.9157 5.46499C14.7784 4.56745 13.3732 4.07676 11.9245 4.07116C10.4757 4.06556 9.06676 4.54539 7.92257 5.43411C6.69534 6.39349 5.85551 7.76347 5.55729 9.29238C5.25908 10.8213 5.52251 12.4064 6.29924 13.7567L5.1324 17.1647C5.12568 17.184 5.12445 17.2047 5.12888 17.2247C5.13331 17.2446 5.14323 17.2629 5.15749 17.2775C5.17175 17.2921 5.18979 17.3025 5.20961 17.3074C5.22943 17.3123 5.2502 17.3116 5.26964 17.3054L8.68107 16.1351C9.91195 16.8447 11.3425 17.1284 12.7511 16.9423C14.1596 16.7561 15.4674 16.1105 16.4717 15.1055ZM16.0358 20.0544C16.0358 20.6211 15.5764 21.0806 15.0096 21.0806C14.4429 21.0806 13.9835 20.6211 13.9835 20.0544C13.9835 19.4877 14.4429 19.0282 15.0096 19.0282C15.5764 19.0282 16.0358 19.4877 16.0358 20.0544Z" stroke="#4B4544" stroke-width="1.3" stroke-miterlimit="10"/>
<circle id="Ellipse 2" cx="11.7098" cy="13.6395" r="0.686399" fill="#4B4544"/>
</g>
</svg>
