<svg width="19" height="24" viewBox="0 0 19 24" fill="none" xmlns="http://www.w3.org/2000/svg">
<g id="Vector">
<path id="Vector_2" d="M3.81655 15.0251V18.7273C3.81655 19.8605 4.25475 20.9473 5.03475 21.7485C5.81476 22.5498 6.87267 23 7.97577 23H13.8469C14.3928 23 14.9333 22.8894 15.4376 22.6746C15.9419 22.4598 16.4 22.145 16.7857 21.7482C17.1715 21.3513 17.4773 20.8803 17.6856 20.3619C17.894 19.8435 18.0008 19.2881 18 18.7273V5.27273C18.0004 4.71204 17.8933 4.15676 17.6848 3.63859C17.4763 3.12043 17.1705 2.64951 16.7848 2.25275C16.3992 1.85599 15.9412 1.54115 15.4371 1.3262C14.933 1.11126 14.3927 1.00041 13.8469 1H7.97577C6.87292 1.00083 5.81547 1.45126 5.03565 2.25237C4.25582 3.05348 3.81736 4.13979 3.81655 5.27273V8.97492M1 12H11.9641M11.9641 12L8.41823 9.23511M11.9641 12L8.41823 14.7649M15.0644 5.24452V18.7555" stroke="#4B4544" stroke-width="1.5" stroke-linecap="round" stroke-linejoin="round"/>
</g>
</svg>
