<svg width="39" height="51" viewBox="0 0 39 51" fill="none" xmlns="http://www.w3.org/2000/svg">
<path id="Vector" d="M29.3978 25.3718L30.6478 25.3745V25.3718H29.3978ZM19.5038 35.44L19.5 36.69L19.5076 36.69L19.5038 35.44ZM9.60224 25.3718H8.35223L8.35224 25.3755L9.60224 25.3718ZM9.60224 12.0606L8.35224 12.057V12.0606H9.60224ZM19.5038 2L19.5076 0.749988L19.5009 0.750003L19.5038 2ZM29.3978 12.0606H30.6478L30.6478 12.057L29.3978 12.0606ZM19.5038 43.1627L19.5005 44.4127L19.5075 44.4127L19.5038 43.1627ZM9.60228 21.897C8.91192 21.897 8.35228 22.4566 8.35228 23.147C8.35228 23.8373 8.91192 24.397 9.60228 24.397V21.897ZM29.3978 24.397C30.0881 24.397 30.6478 23.8373 30.6478 23.147C30.6478 22.4566 30.0881 21.897 29.3978 21.897V24.397ZM20.7463 35.44C20.7463 34.7496 20.1867 34.19 19.4963 34.19C18.806 34.19 18.2463 34.7496 18.2463 35.44H20.7463ZM18.2463 49C18.2463 49.6904 18.806 50.25 19.4963 50.25C20.1867 50.25 20.7463 49.6904 20.7463 49H18.2463ZM28.1478 25.369C28.1426 27.7124 27.2251 29.9543 25.6023 31.6057L27.3854 33.358C29.4706 31.2361 30.6412 28.3654 30.6478 25.3745L28.1478 25.369ZM25.6023 31.6057C23.9802 33.2564 21.7858 34.183 19.5 34.19L19.5076 36.69C22.4676 36.681 25.2996 35.4806 27.3854 33.358L25.6023 31.6057ZM19.5075 34.19C17.2209 34.183 15.0256 33.2565 13.4023 31.6058L11.6198 33.3588C13.7068 35.481 16.5394 36.681 19.5 36.69L19.5075 34.19ZM13.4023 31.6058C11.7782 29.9544 10.8591 27.7123 10.8522 25.3681L8.35224 25.3755C8.36102 28.3669 9.53346 31.2373 11.6198 33.3588L13.4023 31.6058ZM10.8522 25.3718V12.0606H8.35224V25.3718H10.8522ZM10.8522 12.0643C10.8591 9.72096 11.7783 7.47977 13.4024 5.8296L11.6206 4.07599C9.53382 6.19629 8.36103 9.06609 8.35224 12.057L10.8522 12.0643ZM13.4024 5.8296C15.0257 4.18016 17.2208 3.2552 19.5066 3.25L19.5009 0.750003C16.5408 0.756739 13.708 1.95497 11.6206 4.07599L13.4024 5.8296ZM19.5 3.24999C21.7846 3.25693 23.9781 4.18267 25.6 5.83194L27.3825 4.079C25.2968 1.95823 22.4662 0.758986 19.5076 0.750006L19.5 3.24999ZM25.6 5.83194C27.2227 7.48191 28.1409 9.72208 28.1478 12.0643L30.6478 12.057C30.639 9.06758 29.4674 6.19907 27.3825 4.079L25.6 5.83194ZM28.1478 12.0606V25.3718H30.6478V12.0606H28.1478ZM35.75 25.3682C35.7373 29.7587 34.0161 33.9617 30.9691 37.06L32.7515 38.813C36.2609 35.2445 38.2354 30.4132 38.25 25.3754L35.75 25.3682ZM30.9691 37.06C27.9227 40.1577 23.7991 41.8998 19.5 41.9127L19.5075 44.4127C24.4806 44.3978 29.2414 42.3822 32.7515 38.813L30.9691 37.06ZM19.507 41.9127C15.2067 41.9016 11.0812 40.1603 8.03338 37.0624L6.25129 38.8158C9.76308 42.3852 14.5261 44.3999 19.5005 44.4127L19.507 41.9127ZM8.03338 37.0624C4.98483 33.9639 3.26276 29.7599 3.24999 25.3682L0.750005 25.3754C0.764651 30.4146 2.7402 35.247 6.25129 38.8158L8.03338 37.0624ZM9.60228 24.397H29.3978V21.897H9.60228V24.397ZM12.6209 50.25H26.3791V47.75H12.6209V50.25ZM18.2463 35.44V49H20.7463V35.44H18.2463Z" fill="#363130"/>
</svg>
