<svg width="19" height="24" viewBox="0 0 19 24" fill="none" xmlns="http://www.w3.org/2000/svg">
<g id="Vector">
<path id="Vector_2" d="M16.954 18.9041L16.9613 18.1541H16.954V18.9041ZM17.7662 17.131L17.1541 17.5644L17.1641 17.5785L17.1747 17.5921L17.7662 17.131ZM15.8922 12.6139L16.631 12.4843L16.6293 12.4756L15.8922 12.6139ZM14.2847 4.84325L14.8764 4.38237L14.8749 4.38045L14.2847 4.84325ZM9.50031 2.46728L9.50202 1.71727L9.49784 1.71728L9.50031 2.46728ZM4.71591 4.84325L4.12617 4.37989L4.12423 4.38237L4.71591 4.84325ZM3.11264 12.6139L2.37542 12.4758L2.37392 12.4843L3.11264 12.6139ZM1.23864 17.131L1.82606 17.5973L1.83885 17.5812L1.85073 17.5644L1.23864 17.131ZM2.05084 18.9041V18.1541H2.04373L2.03662 18.1542L2.05084 18.9041ZM8.75454 2.46729C8.75454 2.8815 9.09032 3.21729 9.50454 3.21729C9.91875 3.21729 10.2545 2.8815 10.2545 2.46729H8.75454ZM10.2545 1C10.2545 0.585786 9.91875 0.25 9.50454 0.25C9.09032 0.25 8.75454 0.585786 8.75454 1H10.2545ZM9.50032 23L9.50188 22.25H9.50032L9.50032 23ZM16.9467 19.6541C17.2938 19.6574 17.632 19.5569 17.9214 19.3681L17.1016 18.1119C17.0566 18.1413 17.008 18.1546 16.9613 18.1541L16.9467 19.6541ZM17.9214 19.3681C18.2103 19.1795 18.4371 18.9119 18.5798 18.6004L17.2161 17.9757C17.1883 18.0363 17.147 18.0822 17.1016 18.1119L17.9214 19.3681ZM18.5798 18.6004C18.7224 18.2891 18.7765 17.9441 18.7379 17.6046L17.2475 17.7743C17.2555 17.8446 17.2439 17.9149 17.2161 17.9757L18.5798 18.6004ZM18.7379 17.6046C18.6992 17.265 18.5687 16.9405 18.3577 16.6698L17.1747 17.5921C17.2129 17.641 17.2395 17.704 17.2475 17.7743L18.7379 17.6046ZM18.3783 16.6976C17.4975 15.4538 16.899 14.0126 16.6309 12.4843L15.1535 12.7435C15.4594 14.4872 16.143 16.1366 17.1541 17.5644L18.3783 16.6976ZM16.6293 12.4756C16.514 11.8613 16.4647 11.2268 16.4305 10.5615C16.3971 9.91258 16.3775 9.20462 16.3178 8.52497C16.1963 7.14258 15.8988 5.69493 14.8764 4.38237L13.693 5.30414C14.4558 6.28334 14.7124 7.39119 14.8236 8.65628C14.8802 9.30037 14.8965 9.93916 14.9325 10.6385C14.9676 11.3214 15.0208 12.0367 15.1551 12.7523L16.6293 12.4756ZM14.8749 4.38045C14.2263 3.55334 13.409 2.88386 12.4798 2.42243L11.8127 3.76589C12.5377 4.12596 13.1809 4.6511 13.6945 5.30606L14.8749 4.38045ZM12.4798 2.42243C11.5505 1.96092 10.5335 1.71964 9.50202 1.71728L9.4986 3.21728C10.2977 3.2191 11.0878 3.40589 11.8127 3.76589L12.4798 2.42243ZM9.49784 1.71728C8.46673 1.72068 7.4503 1.9624 6.52135 2.42373L7.18853 3.76719C7.91354 3.40714 8.7036 3.2199 9.50278 3.21728L9.49784 1.71728ZM6.52135 2.42373C5.59256 2.88498 4.7753 3.55372 4.12617 4.37989L5.30565 5.30662C5.81989 4.65213 6.46336 4.12731 7.18853 3.76719L6.52135 2.42373ZM4.12423 4.38237C3.10167 5.69512 2.80526 7.14189 2.68486 8.52387C2.62568 9.20315 2.60661 9.91115 2.57366 10.5601C2.53988 11.2255 2.49076 11.8605 2.37547 12.4758L3.84981 12.7521C3.9841 12.0353 4.03704 11.3194 4.07173 10.6362C4.10726 9.93642 4.1231 9.29797 4.1792 8.65406C4.28935 7.38967 4.545 6.28315 5.30759 5.30414L4.12423 4.38237ZM2.37392 12.4843C2.1058 14.0126 1.50729 15.4538 0.62656 16.6976L1.85073 17.5644C2.86178 16.1366 3.54543 14.4872 3.85135 12.7435L2.37392 12.4843ZM0.65123 16.6647C0.436582 16.9351 0.303308 17.2606 0.263 17.6018L1.75264 17.7778C1.76091 17.7078 1.78785 17.6454 1.82606 17.5973L0.65123 16.6647ZM0.263 17.6018C0.222695 17.9429 0.27644 18.2901 0.41978 18.6031L1.78352 17.9784C1.75576 17.9178 1.74437 17.8478 1.75264 17.7778L0.263 17.6018ZM0.41978 18.6031C0.563211 18.9162 0.791876 19.1849 1.08333 19.3732L1.89744 18.1134C1.85235 18.0842 1.81118 18.0388 1.78352 17.9784L0.41978 18.6031ZM1.08333 19.3732C1.37518 19.5618 1.71607 19.6606 2.06507 19.654L2.03662 18.1542C1.99029 18.1551 1.94213 18.1423 1.89744 18.1134L1.08333 19.3732ZM2.05084 19.6541H16.954V18.1541H2.05084V19.6541ZM10.2545 2.46729V1H8.75454V2.46729H10.2545ZM10.8908 20.7584C10.8912 20.9591 10.8537 21.1572 10.7813 21.341L12.1768 21.8911C12.3191 21.5301 12.3916 21.1443 12.3908 20.7556L10.8908 20.7584ZM10.7813 21.341C10.7088 21.5247 10.6034 21.6894 10.4725 21.8265L11.5577 22.8621C11.8246 22.5824 12.0344 22.2522 12.1768 21.8911L10.7813 21.341ZM10.4725 21.8265C10.3418 21.9636 10.1884 22.0702 10.0222 22.1421L10.618 23.5187C10.9717 23.3656 11.2907 23.1419 11.5577 22.8621L10.4725 21.8265ZM10.0222 22.1421C9.85606 22.2141 9.67935 22.2504 9.50188 22.25L9.49876 23.75C9.88379 23.7508 10.2643 23.6719 10.618 23.5187L10.0222 22.1421ZM9.50032 22.25C9.32305 22.25 9.14662 22.2134 8.98079 22.1413L8.38285 23.517C8.73594 23.6705 9.11579 23.75 9.50032 23.75L9.50032 22.25ZM8.98079 22.1413C8.81487 22.0692 8.6618 21.9625 8.53133 21.8255L7.44514 22.86C7.71152 23.1397 8.02985 23.3636 8.38285 23.517L8.98079 22.1413ZM8.53133 21.8255C8.4008 21.6885 8.29558 21.5239 8.22333 21.3403L6.82757 21.8897C6.96953 22.2504 7.17882 22.5804 7.44514 22.86L8.53133 21.8255ZM8.22333 21.3403C8.15107 21.1567 8.11367 20.9589 8.11405 20.7584L6.61406 20.7556C6.61332 21.1438 6.68562 21.5291 6.82757 21.8897L8.22333 21.3403Z" fill="#4B4544"/>
</g>
</svg>
