<svg width="29" height="23" viewBox="0 0 29 23" fill="none" xmlns="http://www.w3.org/2000/svg">
<g id="Vector">
<path id="Vector_2" d="M2.75771 18.2847L2.84093 18.7014C3.04543 19.7205 3.64619 20.6167 4.51122 21.193C5.37625 21.7693 6.43482 21.9787 7.45424 21.7751L24.854 18.3004C25.8735 18.0969 26.7703 17.497 27.3477 16.6326C27.925 15.7683 28.1355 14.7101 27.9329 13.6906L26.0395 4.2096C25.9387 3.70462 25.7394 3.22444 25.4529 2.7965C25.1665 2.36856 24.7985 2.00123 24.37 1.71548C23.9416 1.42973 23.461 1.23112 22.9558 1.13106C22.4506 1.03099 21.9307 1.0314 21.4256 1.13226L4.02581 4.60694C3.52073 4.7078 3.04045 4.90714 2.61242 5.19357C2.18438 5.48 1.81696 5.84795 1.53112 6.27634C1.24529 6.70473 1.04661 7.18522 0.94649 7.69036C0.846372 8.1955 0.846755 8.7154 0.947598 9.22038L2.74829 18.2375M1.01419 9.51611L26.088 4.50894M5.4626 13.4631L7.54333 13.0476M6.18129 17.062L11.2127 16.0573M17.7667 14.7485L19.8293 14.3366M22.4175 13.8197L24.4801 13.4078" stroke="#4B4544" stroke-width="1.5" stroke-linecap="round" stroke-linejoin="round"/>
</g>
</svg>
