<svg width="49" height="49" viewBox="0 0 49 49" fill="none" xmlns="http://www.w3.org/2000/svg">
<path id="Vector" d="M46.6451 2.42038L20.62 28.3867M20.62 28.3774L26.3141 45.3801C26.4374 45.8666 26.7271 46.2946 27.1329 46.5896C27.5388 46.8847 28.0351 47.0282 28.5358 46.9954C28.8676 46.9654 29.1847 46.8439 29.4517 46.6445C29.7187 46.445 29.925 46.1754 30.048 45.8656L46.9064 3.79299C47.0015 3.55543 47.0247 3.29515 46.9733 3.0445C46.9219 2.79384 46.7981 2.56379 46.6172 2.38286C46.4364 2.20192 46.2064 2.07809 45.9558 2.02668C45.7052 1.97526 45.445 1.99849 45.2075 2.09358L3.14552 18.9563C1.81066 19.4885 1.60535 21.2532 2.72551 22.411C2.79085 22.4297 20.62 28.3774 20.62 28.3774Z" stroke="#363130" stroke-width="2.5" stroke-linecap="round" stroke-linejoin="round"/>
</svg>
